/* XPM */
static char *_7a4260c48ff498aef98ec3d922b125d[] = {
/* columns rows colors chars-per-pixel */
"128 128 33 1 ",
"  c #637997",
". c #637A97",
"X c #637B97",
"o c #647997",
"O c #657997",
"+ c #647A96",
"@ c #647A97",
"# c #657A97",
"$ c #647B97",
"% c #657B97",
"& c #637898",
"* c #637998",
"= c #627A98",
"- c #637A98",
"; c #637B98",
": c #637A99",
"> c #637B99",
", c #647898",
"< c #647998",
"1 c #647999",
"2 c #647A98",
"3 c #657A98",
"4 c #647B98",
"5 c #657B98",
"6 c #647A99",
"7 c #657A99",
"8 c #647B99",
"9 c #657B99",
"0 c #647B9A",
"q c #657B9A",
"w c #657C99",
"e c #657C9A",
"r c None",
/* pixels */
"rrrrrrrrrrrrrrrrrrrrrrrrrrrrrrrrrrrrrrrrrrrrrrrrrrrrrrrrrrrrrrrrrrrrrrrrrrrrrrrrrrrrrrrrrrrrrrrrrrrrrrrrrrrrrrrrrrrrrrrrrrrrrrrr",
"rrrrrrrrrrrrrrrrrrrrrrrrrrrrrrrrrrrrrrrrrrrrrrrrrrrrrrrrrrrrrrrrrrrrrrrrrrrrrrrrrrrrrrrrrrrrrrrrrrrrrrrrrrrrrrrrrrrrrrrrrrrrrrrr",
"rrrr4rrrrrrrrrrrrrrrrrrrrrrrrrrrrrrrrrrrrrrrrrrrrrrrrrrrrrrrrrrrrrrrrrrrrrrrrrrrrrrrrrrrrrrrrrrrrrrrrrrrrrrrrrrrrrrrrrrrrrrrrrrr",
"rrrr444rrrrrrrrrrrrrrrrrrrrrrrrrrrrrrrrrrrrrrrrrrrrrrrrrrrrrrrrrrrrrrrrrrrrrrrrrrrrrrrrrrrrrrrrrrrrrrrrrrrrrrrrrrrrrrrrrrrrrrrrr",
"rrrr444qrrrrrrrrrrrrrrrrrrrrrrrrrrrrrrrrrrrrrrrrrrrrrrrrrrrrrrrrrrrrrrrrrrrrrrrrrrrrrrrrrrrrrrrrrrrrrrrrrrrrrrrrrrrrrrrrrrrrrrrr",
"rrrr44qq##rrrrrrrrrrrrrrrrrrrrrrrrrrrrrrrrrrrrrrrrrrrrrrrrrrrrrrrrrrrrrrrrrrrrrrrrrrrrrrrrrrrrrrrrrrrrrrrrrrrrrrrrrrrrrrrrrrrrrr",
"rrrr#qqq#q4rrrrrrrrrrrrrrrrrrrrrrrrrrrrrrrrrrrrrrrrrrrrrrrrrrrrrrrrrrrrrrrrrrrrrrrrrrrrrrrrrrrrrrrrrrrrrrrrrrrrrrrrrrrrrrrrrrrrr",
"rrrr##qqqqqq4rrrrrrrrrrrrrrrrrrrrrrrrrrrrrrrrrrrrrrrrrrrrrrrrrrrrrrrrrrrrrrrrrrrrrrrrrrrrrrrrrrrrrrrrrrrrrrrrrrrrrrrrrrrrrrrrrrr",
"rrrrrqq#qwqq#w#rrrrrrrrrrrrrrrrrrrrrrrrrrrrrrrrrrrrrrrrrrrrrrrrrrrrrrrrrrrrrrrrrrrrrrrrrrrrrrrrrrrrrrrrrrrrrrrrrrrrrrrrrrrrrrrrr",
"rrrrr4qqq#w#qqqqq4rrrrrrrrrrrrrrrrrrrrrrrrrrrrrrrrrrrrrrrrrrrrrrrrrrrrrrrrrrrrrrrrrrrrrrrrrrrrrrrrrrrrrrrrrrrrrrrrrrrrrrrrrrrrrr",
"rrrrr4#q#qqq#w#qq#q#4rrrrrrrrrrrrrrrrrrrrrrrrrrrrrrrrrrrrrrrrrrrrrrrrrrrrrrrrrrrrrrrrrrrrrrrrrrrrrrrrrrrrrrrrrrrrrrrrrrrrrrrrrrr",
"rrrrr#qqwqw#qqwqqqqqq4w#rrrrrrrrrrrrrrrrrrrrrrrrrrrrrrrrrrrrrrrrrrrrrrrrrrrrrrrrrrrrrrrrrrrrrrrrrrrrrrrrrrrrrrrrrrrrrrrrrrrrrrrr",
"rrrrr4qqqq#wqq#w#q#wq#w#qq##4rrrrrrrrrrrrrrrrrrrrrrrrrrrrrrrrrrrrrrrrrrrrrrrrrrrrrrrrrrrrrrrrrrrrrrrrrrrrrrrrrrrrrrrrrrrrrrrrrrr",
"rrrrrrqqw#qqw#qqwqqqqwqq#qwq4qq44444rrrrrrrrrrrrrrrrrrrrrrrrrrrrrrrrrrrrrrrrrrrrrrrrrrrrrrrrrrrrrrrrrrrrrrrrrrrrrrrrrrrrrrrrrrrr",
"rrrrrr4qqwqwqwqwqw#wq#qqwqwqw#qqq#qqqqqq44444qw#444rrrrrrrrrrrrrrrrrrrrrrrrrrrrrrrrrrrrrrrrrrrrrrrrrrrrrrrrrrrrrrrrrrrrrrrrrrrrr",
"rrrrrr44q#q#q#q#q#qqqw#w#q#qqqq#qw#w#qqqqqq4qq4#44qqqqqqqqqqqqqqe444444444#qrrrrrrrrrrrrrrrrrrrrrrrrrrrrrrrrrrrrrrrrrrrrrrrrrrrr",
"rrrrrr44#q#q#q#q#q#wqq#q#wqq#q#wqq#q#wqq#q#wqq#qqwqwqwqwqwqwqwqwqqq#w#wqwqqqq#wq####rrrrrrrrrrrrrrrrrrrrrrrrrrrrrrrrrrrrrrrrrrrr",
"rrrrrrr4wqwqwqwqwqqqw#wqqqw#wqqqw#wqqqw#wqqqw#wqq#q#q#q#q#q#q#q#qqqwqq#q#q#wqw#q44qq44444rrrrrrrrrrrrrrrrrrrrrrrrrrrrrrrrrrrrrrr",
"rrrrrrr4qq#wqq#wqw#wqqqw#q#qqw#wqqqw#q#qqw#wqqqw#wqq#wqq#wqq#wqqqq##qqwqwqw#qqqq4qq#qq4q#q44rrrrrrrrrrrrrrrrrrrrrrrrrrrrrrrrrrrr",
"rrrrrrr4w#qqw#qqq#qqw#q#wqwqq#qqw#q#wqwqq#qqw#q#qqw#qqw#qqw#qqw#qqqq#w#q#qqq#w#wqqqq#qqqqqqwq#4rrrrrrrrrrrrrrrrrrrrrrrrrrrrrrrrr",
"rrrrrrr4qwqq#wqw#wqq#wqqqwqw#q#wqq#qqwqw#wqq#wqq#q#wqq#q#q#wqq#qqqqqw#wqwqqqw#w##q#qqwqqq#w#qqqq44rrrrrrrrrrrrrrrrrrrrrrrrrrrrrr",
"rrrrrrrrq#w#qqq#qqw#qqw#q#q#wqqqw#wqq#q#qqw#qqw#wqqqw#wqwqqqw#wq#w#wqq#q#q#wqqqqwqwqq#w#qwqq#w#w4q#qrrrrrrrrrrrrrrrrrrrrrrrrrrrr",
"rrrrrrrr#qqq#w#q#q#q#q#q#wqqqw#wqqqw#wqq#q#q#q#qqw#wqqqwqw#wqqqwwqq#qqwqwqw#q#wqqq#w#qqqq#qqwqq#qq4qq#rrrrrrrrrrrrrrrrrrrrrrrrrr",
"rrrrrrrr#qw#qqwqwqwqwqwqqqw#q#qqw#q#qqw#wqwqwqwqq#qqw#q#q#qqw#q##qqw#w#q#qqqqw#qw#qqwqw#qw#w#qqw##qqq44rrrrrrrrrrrrrrrrrrrrrrrrr",
"rrrrrrrrr4q#qq#wqwqwqwqw#wqq#q#wqq#q#wqqqwqwqwqw#wqq#q#wqq#q#wqqw#wqq#w#w#wqwqqqqwqqwqqqqqq#q#w#qq#wqwqq4rrrrrrrrrrrrrrrrrrrrrrr",
"rrrrrrrrr4qqw#qqq#q#q#q#qqw#wqqqw#wqqqw#q#q#q#q#qqw#wqqqw#wqqqw#qq#qqwqqqq#q#q#wq#w##q#w#wqwqwqqw#qqq#w#4wrrrrrrrrrrrrrrrrrrrrrr",
"rrrrrrrrrrqqqwqw#wqq#wqq#q#qqw#wqqqw#q#q#wqq#wqq#q#qqw#wqqqw#q#qqqwqq#qqqqwqwqw##qqqwqw#w#q#q#qqqwqw#qqqq#4rrrrrrrrrrrrrrrrrrrrr",
"rrrrrrrrrr44q#q#qqw#qqw#wqwqq#qqw#q#wqwqqqw#qqw#wqwqq#qqw#q#wqwq#w#qqw#w#w#q#qqqwqw##qqqqqqwqw#wq#q#wqw#qq4#4rrrrrrrrrrrrrrrrrrr",
"rrrrrrrrrr#4qwqw#q#wqq#qqwqw#q#wqq#qqwqw#q#wqq#qqwqw#q#wqq#qqwqwwqq#wqq#wqqq#qqqqq44qqqqq#44qqq#w#w#qwqqqq#q4#rrrrrrrrrrrrrrrrrr",
"rrrrrrrrrrr4q#q#wqqqw#wqq#q#wqqqw#wqq#q#wqqqw#wqq#q#wqqqw#wqq#q##qqw#qqw#qqq#qq4##44qqwww%44qqqqqqqqq#w#w#wqqq4rrrrrrrrrrrrrrrrr",
"rrrrrrrrrrr4#wqqqw#wqqqw#wqqqw#wqqqw#wqqqw#wqqqw#wqqqw#wqqqw#wqqw#w#w#w#w4q4w#rrrrrrrrrrrrrrrrrr##qqqqqqqqq#qqqrrrrrrrrrrrrrrrrr",
"rr4rrrrrrrrr#qw#q#qqw#q#qqw#q#qqw#q#qqw#q#qqw#q#qqw#q#qqw#q#qqw#qqqqqqqqq##rrrrrrrrrrrrrrrrrrrrrrrrrq4w#w#qqq#44rrrrrrrrrrrrrrrr",
"rr4rrrrrrrrr4qq#qq#q#wqq#q#wqq#q#q#wqq#q#wqq#q#wwqqqq#wqqqq#qq#qq#qqq4qqrrrrrrrrrrrrrrrrrrrrrrrrrrrrrrr4qqqqq##q4rrrrrrrrrrrrrrr",
"rr44rrrrrrrrrqqqw#wqqqw#wqqqw#wqwqqqw#wqqqw#wqqq#q#wqw#q#wqww#wqqqqq##rrrrrrrrrrrrrrrrrrrrrrrrrrrrrrrrrrr4#4qwqqq#rrrrrrrrrrrrrr",
"rr4qrrrrrrrrr4#wqqqw#q#qqw#wqqqwqw#wqqqw#q#qqw#wwqw#qqqqw#q#qqq##w44rrrrrrrrrrrrrrrrrrrrrrrrrrrrrrrrrrrrrrrr#w4qq44rrrrrrrrrrrrr",
"rr444rrrrrrrrr4qw#q#wqwqq#qqw#q#q#qqw#q#wqwqq#qq#qqq#w#wqqqww#qqq#rrrrrrrrrrrrrrrrrrrrrrrrrrrrrrrrrrrrrrrrrrrr4qq44rrrrrrrrrrrrr",
"rr4q44rrrrrrrr44qq#q#q#q#wqq#wqq#wqq#wqqqwqw#q#wwqqqw#w#q#wqq##q#rrrrrrrrrrrrrrrrrrrrrrrrrrrrrrrrrrrrrrrrrrrrrr4qqq4rrrrrrrrrrrr",
"rrr4qqrrrrrrrrr4qqwqwqwqqqw#qqw#qqw#qqw#q#q#wqqq#q#wqqqqqw#qqwqqrrrrrrrrrrrrrrrrrrrrrrrrrrrrrrrrrrrrrrrrrrrrrrrrr#44rrrrrrrrrrrr",
"rrrqqq#rrrrrrrr444#qqq#w#q#q#q#q#q#q#q#q#wqqqw#wwqw#q#wqqqqqq44rrrrrrrrrrrrrrrrrrrrrrrrrrrrrrrrrrrrrrrrrrrrrrrrrrr444rrrrrrrrrrr",
"rrr4qq44rrrrrrrr#qwqw#qqwqwqwqwqwqwqwqwqqqw#q#qq#qqqqw#q#w#w#wrrrrrrrrrrrrrrrrrrrrrrrrrrrrrrrrrrrrrrrrrrrrrrrrrrrrrrqqrrrrrrrrrr",
"rrr4qqqq#rrrrrrrr44qqq#wqqqqqqqqqwqwqwqw#wqq#q#wwqqqq#wqq#qq4rrrrrrrrrrrrrrrrrrrrrrrrrrrrrrrrrrrrrrrrrrrrrrrrrrrrrrrr4rrrrrrrrrr",
"rrr4#w#w4rrrrrrrr4qq#qqq#w#w#w#wq#q#q#q#qqw#wqqq#q#wqw#qqqq4rrrrrrrrrrrrrrrrrrrrrrrrrrrrrrrrrrrrrrrrrrrrrrrrrrrrrrrrrrrrrrrrrrrr",
"rrr#wqq#4qrrrrrrrr44qwqwwqq#wqq##wqq#wqq#q#qqw#wwqw#qqqq#q4rrrrrrrrrrrrrrrrrrrrrrrrrrrrrrrrrrrrrrrrrrrrrrrrrrrrrrrrrrrrrrrrrrrrr",
"rrrr#qq#4q4rrrrrrr44q#q##qqw#qqwqqw#qqw#wqwqq#qq#qqq#w#w#q4rrrrrrrrrrrrrrrrrrrrrrrrrrrrrrrrrrrrrrrrrrrrrrrrrrrrrrrrrrrrrrrrrrrrr",
"rrrr4qqq#q4#rrrrrrr4qqqqw#wqq#w##q#wqq#qqwqw#q#wwqqqw#w#w#rrrrrrrrrrrrrrrrrrrrrrrrrrrrrrrrrrrrrrrrrrrrrrrrrrrrrrrrrrrrrrrrrrrrrr",
"rrrr44qqwqqwrrrrrrrr#w#wqq#qqwqqwqqqw#wqq#q#wqqq#q#wqqqqq#rrrrrrrrrrrrrrrrrrrrrrrrrrrrrrrrrrrrrrrrrrrrrrrrrrrrrrrrrrrrrrrrrrrrrr",
"rrrr#w#qqqq#qrrrrrrr#4q#qqwqq#qqqw#wqqqw#wqqqw#wwqw#q#qq4rrrrrrrrrrrrrrrrrrrrrrrrrrrrrrrrrrrrrrrrrrrrrrrrrrrrrrrrrrrrrrrrrrrrrrr",
"rrrr#qwqw#q#qqrrrrrrr4qw#w#qqw#wq#qqw#q#qqw#q#qq#qqqqwq4rrrrrrrrrrrrrrrrrrrrrrrrrrrrrrrrrrrrrrrrrrrrrrrrrrrrrrrrrrrrrrrrrrrrrrrr",
"rrrr#4qqwqqqq#qrrrrrrr44q#w#wqq##wqq#q#wqq#q#wqq#wqq#q#4rrrrrrrrrrrrrrrrrrrrrrrrrrrrrrrrrrrrrrrrrrrrrrrrrrrrrrrrrrrrrrrrrrrrrrrr",
"rrrrrwqq#q#wqw4#rrrrrr4qqqqq#qqwqqw#wqqqw#wqqqw#qqw#wqq4rrrrrrrrrrrrrrrrrrrrrrr4##w4qqqq44qqrrrrrrrrrrrrrrrrrrrrrrrrrrrrrrrrrrrr",
"rrrrr4#wwqw#qqqq4rrrrrr44qqqw#w##q#qqw#wqqqw#q#q#q#qqqqrrrrrrrrrrrrrrrrrrrrrr#4qqqqwqwqwqqq#qq4#4rrrrrrrrrrrrrrrrrrrrrrrrrrrrrrr",
"rrrrr#qq#qqq#w#w4,rrrrrr#w##qqqqwqwqq#qqw#q#wqwqwqwq#q4rrrrrrrrrrrrrrrrrrrrr#qqqw#q#q#q###qqqq4q444#4rrrrrrrrrrrrrrrrrrrrrrrrrrr",
"rrrrr44qwqqqw#w#qq#rrrrrr4qqqwqwqwqw#q#wqq#qqwqwqqqqqw#rrrrrrrrrrrrrrrrrrrr#4qq#qq#qqwqwqq#wqq#w4qqq#w#4rrrrrrrrrrrrrrrrrrrrrrrr",
"rrrrr4qq#q#wqqqq#q4rrrrrr#qqq#q#q#q#wqqqw#wqq#q##w#wq#rrrrrrrrrrrrrrrrrrrr4qqqqww#wqq#q#w#qqw#qqqqqqqqw4qq4rrrrrrrrrrrrrrrrrrrrr",
"rrrrrrq#wqw#q#wqqqq4rrrrrr44#wqq#wqqqw#wqqqw#wqqwqq#qqrrrrrrrrrrrrrrrrrrr4wqw#q#qqqw#wqqqwqwqwqwqwq##w#q#qqq4qrrrrrrrrrrrrrrrrrr",
"rrrrrrqq#qqqqw#qw#q44rrrrrr#qq#qqqw#q#qqw#q#qqw##qq#q4rrrrrrrrrrrrrrrrrrrq#qqqqww#q#qqw#q#q#q#q#q#qqqqwqwq#qq4w#4rrrrrrrrrrrrrrr",
"rrrrrr4#qqq#wqqqqwqq#%rrrrrwqqqq#q#wqq#q#q#wqq#qw#wqq#rrrrrrrrrrrrrrrrrrrq#wqwqqqq#q#wqqqwqwqwqw#wqq#q#wqq#q#wqqq4#rrrrrrrrrrrrr",
"rrrrrrqqq#qw#q#wq#w#qqw#rrrr4qqqwqqqw#wqwqqqw#wqqq#qqrrrrrrrrrrrrrrrrrrrr#qqq#w#w#wqqqw#q#q#q#q#qqw#wqqqw#wqqqw#qq4qq4rrrrrrrrrr",
"rrrrrr#qw#q#wqw##qqq#w#q4rrrr444qw#wqqqwqw#wqqqwqqwqqrrrrrrrrrrrrrrrrrrrr4q##qqqqqqw#q#q#wqq#wqq#q#qqw#wqqqw#q#qq#wqqq#4rrrrrrrr",
"rrrrrrrqqqqw#qqqwqw#qqwq44rrrr44q#qqw#q#q#qqw#q##w#q4rrrrrrrrrrrrrrrrrrrrrqqwqw#w#q#wqwqqqw#qqw#wqwqq#qqw#q#wqwqqq#qq#w#4qrrrrrr",
"rrrrrrrqq#wqq#wqqq#wqq#w4q#rrr#4#wqq#wqq#wqq#wqqwqq#%rrrrrrrrrrrrrrrrrrrrr44qwqqqq#qqwqw#q#wqq#qqwqw#q#wqq#qqwqw#q#wqq#qqqw#rrrr",
"rrrrrrr4qw#qqw#qw#qqw#qqqqq4rrr4qqw#qqw#qqw#qqw##qqw4rrrrrrrrrrrrrrrrrrrrrr#q#w#w#wqq#q#wqqqw#wqq#q#wqqqw#wqq#q#wqqqw#wqqq4#q4rr",
"rrrrrrrqqqqqqqqqqwqwqwqwq#qq4rrr#qqq#q#q#q#q#q#qw#w#4rrrrrrrrrrrrrrrrrrrrrrr#qqqqqqw#wqqqw#wqqqw#wqqqw#wqqqw#wqqqw#wqqqw#wqqq#4r",
"rrrrrrr4#w#w#w#wq#q#q#q#qqq#q#rrr4#qwqwqwqwqwqwqqqqq4rrrrrrrrrrrrrrrrrrrrrrrr44#w#q#qqw#q#qqw#q#qqw#q#qqw#q#qqw#q#qqw#q#qqw#qqqr",
"rrrrrrrrw#w#w#w#qqqqqqqqqqqqqq#rr#qqqwqwqqqqqqqqw##q#rrrrrrrrrrrrrrrrrrrrrrrrrr444qqqqq#w#wqwqqqq#wqqqq##wqwqq#wqwqq#wqwqq#wqw#r",
"rrrrrrrr4qqqqqqq#w#w#w#w#w#w#qwq4r4qq#q##w#w#w#wqqqq4rrrrrrrrrrrrrrrrrrrrrrrrrrr44qqq#qwqq#q#q#wqw#q#wqwqqq#w#qqq#w#qqq#w#qqq#rr",
"rrrrrrrrqqwqq#wqwqq#wqq#wqq#wq#wq4r4#wqqwqq#wqq#q#q#4rrrrrrrrrrrrrrrrrrrrrrrrrrrrr#qq#w#qqwqwqw#qqqqw#q##w#qqwqw#qqq#w#qqwqwqqrr",
"rrrrrrrr###qqw#q#qqw#qqw#qqw#qqqqq444qw##qqw#qqwqwqq4rrrrrrrrrrrrrrrrrrrrrrrrrrrrrrr#qqq#w#q#qqq#w#wqqqwqqwqq#q#wqw#qqwqq#q#q4rr",
"rrrrrrrrr4qqwqqqw#wqq#w#w#wq#wqwqq#q4qqqw#wqq#w#qqq#4rrrrrrrrrrrrrrrrrrrrrrrrrrrrrrrrr4qwqqqqqwqw#w#qqq##wqw#q#qqq#wqq#ww#w#qqrr",
"rrrrrrrrr4qq#q#wqq#qqwqqqq#qqqq##q#qqw#qqq#qqwqq#wqwqrrrrrrrrrrrrrrrrrrrrrrrrrrrrrrrrrrr##44qq#qqqqq#wqwqqq#wqwqw#qqw#qqqqqq#wrr",
"rrrrrrrrr4#qwqw#qqwqq#qqqqwq#w#q#qqqq#qqqqwqq#qqw#q#qrrrrrrrrrrrrrrrrrrrrrrrrrrrrrrrrrrrrr44#qqqq#wqw#q##w#qqq#wqwqwqwqwq#wqqqrr",
"rrrrrrrrr4#q#qqq#w#qqw#w#w#qqqwqwqw#qw#w#w#qqw#wqqqwq4rrrrrrrrrrrrrrrrrrrrrrrrrrrrrrrrrrrrrr#4q#qw#qqqqwqqwqw#qqq#q#q#q#qw#qqwrr",
"rrrrrrrrrrqqqqwqwqq#w#wq#wqwqq#wqq#wqwqqq#w#wqq#q#wqq#rrrrrrrrrrrrrrrrrrrrrrrrrrrrrrrrrrrrrrrrr4#44qqqq#qqq##wqww#w#w#w#q#wqqwrr",
"rrrrrrrrrr4qq##q#qqwqq#qqqq#w#qqw#qqq#w#qwqq#qqwqw#q#wrrrrrrrrrrrrrrrrrrrrrrrrrrrrrrrrrrrrrrrrrrr##q44qqq#qwqqq#qqqqqqqqqw#q#%rr",
"rrrrrrrrrr4qqqqqw#w#qqwq#w#qqwqwqwqw#qqqq#qqw#w#qqqq#q4rrrrrrrrrrrrrrrrrrrrrrrrrrrrrrrrrrrrrrrrrrrrr44q4w#q##w#qq#wqq#wqqqqq44rr",
"rrrrrrrrrrr4#w#wqqqq#w#qqqwqq#q#q#q#wqw#qw#wqqqq#w#wqqq4rrrrrrrrrrrrrrrrrrrrrrrrrrrrrrrrrrrrrrrrrrrrrr#wqqqwqqwqqw#qqw#q#w#w44rr",
"rrrrrrrrrrr4qqqqqqqqw#wq#wqw#q#q#q#qqwqqq#w#qqqqqqqqqqq#rrrrrrrrrrrrrrrrrrrrrrrrrrrrrrrrrrrrrrrrrrrrrrrrr#44qqq#qqq#wqqqw#w#qqrr",
"rrrrrrrrrrr4#w#w#w#wqq#qqqq#wqwqwqwqq#w#qwqq#w#w#w#w#w#q4rrrrrrrrrrrrrrrrrrrrrrrrrrrrrrrrrrrrrrrrrrrrrrrrrr4#qqq#wqw#q#wqqqqq4rr",
"rrrrrrrrrrrrwqq#wqq#qqwq#w#qqq#wqq#w#qqqq#qqwqq#wqq#qqwqq#rrrrrrrrrrrrrrrrrrrrrrrrrrrrrrrrrrrrrrrrrrrrrrrrrrrr44#qq#wqw#q#wq4#rr",
"rrrrrrrrrrrr#qqw#qqw#w#qqqwqw#qqw#qqwqw#qw#w#qqw#qqw#w#q#qqrrrrrrrrrrrrrrrrrrrrrrrrrrrrrrrrrrrrrrrrrrrrrrrrrrrrr4#qw#qqqqw#qqqrr",
"rrrrrrrrrrrrqqq##wqwqq#wqwqq#wqwqwqq#wqwqq#wqwqqqq#q#wqq#q#wrrrrrrrrrrrrrrrrrrrrrrrrrrrrrrrrrrrrrrrrrrrrrrrrrrrrrr444qq#qqqq#4rr",
"rrrrrrrrrrrrrqqwqqq#w#qqq#w#qqq#q#w#qqq#w#qqq#w#w#wqqqw#wqqq4wrrrrrrrrrrrrrrrrrrrrrrrrrrrrrrrrrrrrrrrrrrrrrrrrrrrrrrr4qqw#w#w#rr",
"rrrrrrrrrrrrr4q##w#qqwqw#qqq#w#q#qqq#w#qqwqw#qqqqqqw#q#qqw#wq#4#rrrrrrrrrrrrrrrrrrrrrrrrrrrrrrrrrrrrrrrrrrrrrrrrrrrrrrr4q4qqq4rr",
"rrrrrrrrrrrrr#qwqqwqq#q#wqw#qqwqwqw#qqwqq#q#wqw#w#q#wqwqq#qqqqq#444rrrrrrrrrrrrrrrrrrrrrrrrrrrrrrrrrrrrrrrrrrrrrrrrrrrrr##qqqrrr",
"rrrrrrrrrrrrrr44#wqw#q#qqq#wqq#wqq#wqq#w#q#qqwqqqq#qqwqw#wqq#wqqqww#44rrrrrrrrrrrrrrrrrrrrrrrrrrrrrrrrrrrrrrrrrrrrrrrrrrrrq4qrrr",
"rrrrrrrrrrrrrr44qqq#wqwqw#qqw#qqw#qqw#qqwqwqq#w#w#wqq#q#qqw#qqw#q#qq44q4#wrrrrrrrrrrrrrrrrrrrrrrrrrrrrrrrrrrrrrrrrrrrrrrrrr4qrrr",
"rrrrrrrrrrrrrrrq#w#qqq#wqwqwqwqwqwqwqwqwqq#w#qqqqqqw#wqq#q#q#q#q#w#qqqqqq#qq44#wqrrrrrrrrrrrrrrrrrrrrrrrrrrrrrrrrrrrrrrrrrrr#rrr",
"rrrrrrrrrrrrrrr4qqwqw#qqq#q#q#q#q#q#q#q#w#qqwqw#w#q#qqw#wqwqwqwqqqqq#qqqq#qqq4w#qq#qq44#rrrrrrrrrrrrrrrrrrrrrrrrrrrrrrrrrrrrrrrr",
"rrrrrrrrrrrrrrrrqqqwqq#w#q#q#q#q#q#q#q#qqq#wqwqqqq#q#wqqqwqwqwqw#q#wqq#q#q#wqq#q##wqq#w#w#w4#4rrrrrrrrrrrrrrrrrrrrrrrrrrrrrrrrrr",
"rrrrrrrrrrrrrrrr44q#w#qqwqwqwqwqwqwqwqwqw#qqq#w#w#wqqqw#q#q#q#q#wqqqw#wqwqqqw#wqqq#qqwqqqqqqqw4q44rrrrrrrrrrrrrrrrrrrrrrrrrrrrrr",
"rrrrrrrrrrrrrrrrrwq#qwqwqq#wqq#wqq#wqq#wqwqw#qqqqqqw#q#q#wqq#wqqqw#wqqqwqw#wqqqwqqwqq#qqqq#qq#qqq#q#wrrrrrrrrrrrrrrrrrrrrrrrrrrr",
"rrrrrrrrrrrrrrrrr#qqq#q#w#qqw#qqw#qqw#qqq#q#wqw#w#q#wqwqqqw#qqw#q#qqw#q#q#qqw#q##w#qqw#w#w#qqw#wqqq#4#wrrrrrrrrrrrrrrrrrrrrrrrrr",
"rrrrrrrrrrrrrrrrrrqq#q#qqwqq#wqwqwqq#wqw#q#qqwqqqq#qqwqw#q#wqq#q#wqq#wqq#wqq#wqqwqq#wqq#wqq#wqq##q#q4qq4rrrrrrrrrrrrrrrrrrrrrrrr",
"rrrrrrrrrrrrrrrrrr4qwqwqq#w#qqq#q#w#qqq#wqwqq#w#w#wqq#q#wqqqw#wqqqw#qqw#qqw#qqw##qqw#qqw#qqw#qqwwqwq44qq4rrrrrrrrrrrrrrrrrrrrrrr",
"rrrrrrrrrrrrrrrrrrr4qq#w#qqq#w#q#qqq#w#qqq#w#qqqqqqw#wqqqw#wqqqw#q#q#q#q#q#q#q#qw#w#w#w#w#w#w#w#qq#w#qqqq#rrrrrrrrrrrrrrrrrrrrrr",
"rrrrrrrrrrrrrrrrrrr#w#qqwqw#qqwqwqw#qqwqw#qqwqw#w#q#qqw#q#qqw#q#wqwqwqwqwqwqwqwqqqqqqqqqqqqqqqqqw#qqwq#qqq4rrrrrrrrrrrrrrrrrrrrr",
"rrrrrrrrrrrrrrrrrrrr444qqqq#w#wq#wqwqq#wqwqq#wqwqq#wqwqqqq#q#wqqw#w#w#w#w#w#w#w#w#w#w#w#w#w#w#w#qq#wqwqq#wq#rrrrrrrrrrrrrrrrrrrr",
"rrrrrrrrrrrrrrrrrrrr#qqqq#qwqq#qqqq#w#qqq#w#qqq#w#qqq#w#w#wqqqw#qqqqqqqqqqqqqqqqqqqqqqqqqqqqqqqqw#qqq#w#qqq#rrrrrrrrrrrrrrrrrrrr",
"rrrrrrrrrrrrrrrrrrrrrqqqqq##qqwq#w#qqwqw#qqq#w#qqwqw#qqqqqqw#q#qq#wqq#wqq#wqq#wqq#wqq#wqq#wqq#wqqwqw#qqq#ww#rrrrrrrrrrrrrrrrrrrr",
"rrrrrrrrrrrrrrrrrrrrrr4q#qqq#w#qqqwqq#q#wqw#qqwqq#q#wqw#w#q#wqwqqw#qqw#qqw#qqw#qqw#qqw#qqw#qqw#qq#q#wqw#qqqwrrrrrrrrrrrrrrrrrrrr",
"rrrrrrrrrrrrrrrrrrrrrr44qqqqw#wq#wqw#q#qqq#wqq#w#q#qqwqqqq#qqwqwqqq#wqqqqqq#wqqqqqq#wqqqqqq#wqqq#q#qqwqqq#w#rrrrrrrrrrrrrrrrrrrr",
"rrrrrrrrrrrrrrrrrrrrrrr4#w#wqq#qqqq#wqwqw#qqw#qqwqwqq#w#w#wqq#q##wqw#q#w#wqw#q#w#wqw#q#w#wqw#q#wwqwqq#w#qwqqrrrrrrrrrrrrrrrrrrrr",
"rrrrrrrrrrrrrrrrrrrrrrrr%wq#qqwq#w#qqq#wqwqwqwqwqq#w#qqqqqqw#wqqw#q#wqw#w#q#wqw#w#q#wqw#w#q#wqw#qq#w#qqqq#qqrrrrrrrrrrrrrrrrrrrr",
"rrrrrrrrrrrrrrrrrrrrrrrrr4qw#w#qqqwqw#qqq#q#q#q#w#qqwqw#w#q#qqw#qqqw#qqqqqqw#qqqqqqw#qqqqqqw#qqqw#qqwqw#qw#qrrrrrrrrrrrrrrrrrrrr",
"rrrrrrrrrrrrrrrrrrrrrrrrr#4qq#qq#wqwqq#wqwqwqwqwqwqq#wqwqwqqqq#qq#wqqqq#wqqqq#wqq#wqqqq#wqqqq#wqqwqq#wqwqwqqrrrrrrrrrrrrrrrrrrrr",
"rrrrrrrrrrrrrrrrrrrrrrrrrr4qqqw#qqq#w#qqq#q#q#q#q#w#qqq#q#w#w#wqqw#q#wqw#q#wqw#qqw#q#wqw#q#wqw#qq#w#qqq#q#w#rrrrrrrrrrrrrrrrrrrr",
"rrrrrrrrrrrrrrrrrrrrrrrrrrr4#qqq#w#qqwqw#wqq#wqqq4qqwqqq#qqqqqq#qqqqw#q#wqw#qqqqqqqqw#q#wqw#qqqq#qqq#w#qq4qqrrrrrrrrrrrrrrrrrrrr",
"rrrrrrrrrrrrrrrrrrrrrrrrrrrr#qw#qqwqq#q#qqw#qq#q44rr#4#qwqw#w#qq#w#wqqqw#qqq#w#w#w#wqqqw#qqq#w#wwqw#qqwqqw##rrrrrrrrrrrrrrrrrrrr",
"rrrrrrrrrrrrrrrrrrrrrrrrrrrrr4qqqqqwqwqw#q#wwqqqrrrrrrrrrq#44qqqqqqqqqq#wqqqw#w#w#w#qqq#wqqqw#w#qq#wqq#wq#qqrrrrrrrrrrrrrrrrrrrr",
"rrrrrrrrrrrrrrrrrrrrrrrrrrrrrr#qq4q#q#q#wqqq#q#4rrrrrrrrrrrrr44q#w###wqw#q#wqqqqqqqq#wqw#q#wqqqqw#qqw#qqqwqrrrrrrrrrrrrrrrrrrrrr",
"rrrrrrrrrrrrrrrrrrrrrrrrrrrrrrr4w4qw#wqqqw#wwq4#rrrrrrrrrrrrrrrr%4qqq#q#wqw#q#wqq#wqw#q#wqw#q#wqqwqwqwqwqw4rrrrrrrrrrrrrrrrrrrrr",
"rrrrrrrrrrrrrrrrrrrrrrrrrrrrrrrr##q#qqw#q#qq#qqqrrrrrrrrrrrrrrrrrrrrqqqw#qqqqw#qqw#qqqqw#qqqqw#qq#q#q#q##%rrrrrrrrrrrrrrrrrrrrrr",
"rrrrrrrrrrrrrrrrrrrrrrrrrrrrrrrrr4qq#qqq#q#w#wqw4rrrrrrrrrrrrrrrrrrrrrr44444qqqqqqqq#wwqqqq#wqqq#qqqq#qq4rrrrrrrrrrrrrrrrrrrrrrr",
"rrrrrrrrrrrrrrrrrrrrrrrrrrrrrrrrrrrq#qw#wqqqqqq#4rrrrrrrrrrrrrrrrrrrrrrrrrr4qqq#qq#qqq#q#wqw#q#wwq#qqqqqrrrrrrrrrrrrrrrrrrrrrrrr",
"rrrrrrrrrrrrrrrrrrrrrrrrrrrrrrrrrrrr#4qqqw#w#w#qq4rrrrrrrrrrrrrrrrrrrrrrrrrrrrr4444w#4qqw#q##qqqqq4q#q4rrrrrrrrrrrrrrrrrrrrrrrrr",
"rrrrrrrrrrrrrrrrrrrrrrrrrrrrrrrrrrrrrwqqq#qqqqwqqq#rrrrrrrrrrrrrrrrrrrrrrrrrrrrrrrr#%w4qqqqwqq#qw#4#4rrrrrrrrrrrrrrrrrrrrrrrrrrr",
"rrrrrrrrrrrrrrrrrrrrrrrrrrrrrrrrrrrrrr44#wqqqq#wqq##rrrrrrrrrrrrrrrrrrrrrrrrrrrrrrrrrrrrrr4444444rrrrrrrrrrrrrrrrrrrrrrrrrrrrrrr",
"rrrrrrrrrrrrrrrrrrrrrrrrrrrrrrrrrrrrrrrr#qq4#qqq#q4#rrrrrrrrrrrrrrrrrrrrrrrrrrrrrrrrrrrrrrrrrrrrrrrrrrrrrrrrrrrrrrrrrrrrrrrrrrrr",
"rrrrrrrrrrrrrrrrrrrrrrrrrrrrrrrrrrrrrrrrrr44qqqw#q4q#rrrrrrrrrrrrrrrrrrrrrrrrrrrrrrrrrrrrrrrrrrrrrrrrrrrrrrrrrrrrrrrrrrrrrrrrrrr",
"rrrrrrrrrrrrrrrrrrrrrrrrrrrrrrrrrrrrrrrrrrr4#4q#wqqqq4rrrrrrrrrrrrrrrrrrrrrrrrrrrrrrrrrrrrrrrrrrrrrrrrrrrrrrrrrrrrrrrrrrrrrrrrrr",
"rrrrrrrrrrrrrrrrrrrrrrrrrrrrrrrrrrrrrrrrrrrrr4qqqq#wqw#rrrrrrrrrrrrrrrrrrrrrrrrrrrrrrrrrrrrrrrrrrrrrrrrrrrrrrrrrrrrrrrrrrrrrrrrr",
"rrrrrrrrrrrrrrrrrrrrrrrrrrrrrrrrrrrrrrrrrrrrrrr4w#qqq#44rrrrrrrrrrrrrrrrrrrrrrrrrrrrrrrrrrrrrrrrrrrrrrrrrrrrrrrrrrrrrrrrrrrrrrrr",
"rrrrrrrrrrrrrrrrrrrrrrrrrrrrrrrrrrrrrrrrrrrrrrrrr4qqqq44rrrrrrrrrrrrrrrrrrrrrrrrrrrrrrrrrrrrrrrrrrrrrrrrrrrrrrrrrrrrrrrrrrrrrrrr",
"rrrrrrrrrrrrrrrrrrrrrrrrrrrrrrrrrrrrrrrrrrrrrrrrrrr4#qqq4rrrrrrrrrrrrrrrrrrrrrrrrrrrrrrrrrrrrrrrrrrrrrrrrrrrrrrrrrrrrrrrrrrrrrrr",
"rrrrrrrrrrrrrrrrrrrrrrrrrrrrrrrrrrrrrrrrrrrrrrrrrrrrr4qqqqrrrrrrrrrrrrrrrrrrrrrrrrrrrrrrrrrrrrrrrrrrrrrrrrrrrrrrrrrrrrrrrrrrrrrr",
"rrrrrrrrrrrrrrrrrrrrrrrrrrrrrrrrrrrrrrrrrrrrrrrrrrrrrrrr44qrrrrrrrrrrrrrrrrrrrrrrrrrrrrrrrrrrrrrrrrrrrrrrrrrrrrrrrrrrrrrrrrrrrrr",
"rrrrrrrrrrrrrrrrrrrrrrrrrrrrrrrrrrrrrrrrrrrrrrrrrrrrrrrrrrr4rrrrrrrrrrrrrrrrrrrrrrrrrrrrrrrrrrrrrrrrrrrrrrrrrrrrrrrrrrrrrrrrrrrr",
"rrrrrrrrrrrrrrrrrrrrrrrrrrrrrrrrrrrrrrrrrrrrrrrrrrrrrrrrrrrrrrrrrrrrrrrrrrrrrrrrrrrrrrrrrrrrrrrrrrrrrrrrrrrrrrrrrrrrrrrrrrrrrrrr"
};
