/* XPM */
static char *c76d4156641c4374842c3b034a75ac23[] = {
/* columns rows colors chars-per-pixel */
"16 16 16 1 ",
"  c #637B97",
". c #647A97",
"X c #657A97",
"o c #657C97",
"O c #637B99",
"+ c #657998",
"@ c #647A98",
"# c #657A98",
"$ c #647B98",
"% c #657B98",
"& c #647A99",
"* c #657A99",
"= c #647B99",
"- c #657B99",
"; c #657C99",
": c None",
/* pixels */
"::::::::::::::::",
":@@:::::::::::::",
":@@;-------@::::",
":;;@------@@@@::",
"::@;@;--::::::::",
"@:@;---:::::::::",
":;:@--@::@@@@:::",
":@@;---::;;@;;@:",
":--@@-@::::@;--+",
":@--;-@::::::-++",
"::;------:::::::",
"::@--------@@:::",
":::-;-------;@::",
"::::@@:-@---@:::",
":::::;:::::;::::",
"::::::::::::::::"
};
