/* XPM */
static char *_3ad5cba8b5b47ffddbd169d179c8a03[] = {
/* columns rows colors chars-per-pixel */
"64 64 28 1 ",
"  c #637A95",
". c #637997",
"X c #637A97",
"o c #647997",
"O c #647A97",
"+ c #657A97",
"@ c #647B97",
"# c #657B97",
"$ c #637998",
"% c #637A98",
"& c #637B98",
"* c #637A99",
"= c #647898",
"- c #647998",
"; c #657998",
": c #647A98",
"> c #657A98",
", c #647B98",
"< c #657B98",
"1 c #647A99",
"2 c #657A99",
"3 c #647B99",
"4 c #657B99",
"5 c #647A9A",
"6 c #647B9A",
"7 c #647C98",
"8 c #657C99",
"9 c None",
/* pixels */
"9999999999999999999999999999999999999999999999999999999999999999",
"99:9999999999999999999999999999999999999999999999999999999999999",
"99::999999999999999999999999999999999999999999999999999999999999",
"99::229999999999999999999999999999999999999999999999999999999999",
"998:8:4:99999999999999999999999999999999999999999999999999999999",
"99:::844:8:99999999999999999999999999999999999999999999999999999",
"99988444842822::999999999999999999999999999999999999999999999999",
"999:4444448284482828:::88:428:::2:999999999999999999999999999999",
"999:828244444444828282828282828282824444:::999999999999999999999",
"9992282844444444282828282828282828284444444826:99999999999999999",
"999982824444444482828282828282828282444444444444:999999999999999",
"9999:82844444444282828282828282828284444444444448::9999999999999",
"9999928244444444828282828282828282828244444444442828:99999999999",
"99999:2844444444282828282828282828282844444444488282:89999999999",
"99999:4444444444828282828282828282828844::4:28::8:28828999999999",
"999999444444444428282828282828282828::999999999998:228::99999999",
"9:99998:28282828282828288282828228:99999999999999999::88:9999999",
"989999988282828282828282282828282:99999999999999999999::29999999",
"9:89999;28822828282828288282828:999999999999999999999999::999999",
"9:::9999:8288282828282822828282999999999999999999999999999299999",
"99289999::822828282828288282289999999999999999999999999999999999",
"9982:9999:2882828282828228288:9999999999999999999999999999999999",
"99:88:9999282828282828288282299999999999999999999999999999999999",
"99:8:::999:28282828282822828999999999999999999999999999999999999",
"99:82828999:282828288282828:999999999999988:99999999999999999999",
"99228282:999:88282822828288:9999999999:828:8288::;99999999999999",
"999828288899::822828828282:9999999999:82828282828:28:99999999999",
"99928282::999:288282282828:999999999982828282828:882822:99999999",
"9998:828828999:22882828282:9999999992828828282828282282822999999",
"999282822828:99282282828282999999999928228282828:8288282828:2999",
"999:28288282289:228282828299999999999828828282828282282828282:89",
"99998282282882:9:828282828999999999999:22828282828288282828288:9",
"99992828828282829:2828288299999999999999:28282282828828282828289",
"9999:28228282824::82828228999999999999999:2828828282282828282829",
"99998228828282442828282882:9999999999999999828282828828282828289",
"9999988228282844828282822829999999999999999999828282282828282829",
"999998:8828244442828282882:999999999999999999999;#8:8:82828282:9",
"99999:822828444482828282282:99999999999999999999999:2828282828:9",
"999999828282444428282828288299999999999999999999999998:2828282:9",
"999999:828284444828282828282:999999999999999999999999999282828:9",
"99999928444444442828282828282::999999999999999999999999999:28229",
"99999992444444448282828282822882:999999999999999999999999999:829",
"9999999844444444282828282828828282::9999999999999999999999999:;9",
"9999999:444444448282828282822828282882:8:29999999999999999999999",
"99999999:844282828282828282828288282828282828::29999999999999999",
"99999999:6448282828282828282828228282828282882828::9999999999999",
"999999999:28282828282828282828288282828282822828822:999999999999",
"999999999:828282828282828282828228282828282882822828899999999999",
"9999999999:8:2822828282828282828282828282828282882822:9999999999",
"99999999999:8628828282828282828282828282828282822828829999999999",
"99999999999:8282282828282828282828282828282828288282289999999999",
"999999999999:828828282828282828282828282828282822828829999999999",
"9999999999999:2828282828288282:828282828282828288282829999999999",
"999999999999998282828282::22288:82828282828282822828289999999999",
"999999999999999::828288299999;8:822828282828282882828:9999999999",
"99999999999999998282822:999999999#228282828282822828#99999999999",
"999999999999999992882828:99999999999#:2228282828:882999999999999",
"999999999999999999228282:9999999999999992:8:82828;29999999999999",
"99999999999999999999;8:8:299999999999999999999999999999999999999",
"999999999999999999999:8228:9999999999999999999999999999999999999",
"99999999999999999999999:828:999999999999999999999999999999999999",
"9999999999999999999999999228999999999999999999999999999999999999",
"9999999999999999999999999998899999999999999999999999999999999999",
"9999999999999999999999999999999999999999999999999999999999999999"
};
