/* XPM */
static char *_02f0576316b4e96f71d7789d1dead82[] = {
/* columns rows colors chars-per-pixel */
"32 32 15 1 ",
"  c #647A97",
". c #637A98",
"X c #637A99",
"o c #637B99",
"O c #647998",
"+ c #647A98",
"@ c #657A98",
"# c #647B98",
"$ c #657B98",
"% c #647A99",
"& c #657A99",
"* c #647B99",
"= c #657B99",
"- c #647B9A",
"; c None",
/* pixels */
";;;;;;;;;;;;;;;;;;;;;;;;;;;;;;;;",
";.=;;;;;;;;;;;;;;;;;;;;;;;;;;;;;",
";@=@=;;;;;;;;;;;;;;;;;;;;;;;;;;;",
";@====.@#@;;;;;;;;;;;;;;;;;;;;;;",
";;==================@.=;;;;;;;;;",
";;#=====================@;;;;;;;",
";;========================.;;;;;",
";;;===============@.;;;=@.=@;;;;",
";;;==============;;;;;;;;;;@.;;;",
";@;;@===========;;;;;;;;;;;;@;;;",
";=;;==========@;;;;;;;;;;;;;;;;;",
";@@;;.========;;;;;;;;;;;;;;;;;;",
";@==;;=======@;;;;;;@=#.;;;;;;;;",
";===@;.======.;;;;@======#@;;;;;",
";;====;======;;;;;==========@.;;",
";;=====;.====;;;;;;===========.@",
";;@====@.====;;;;;;;===========@",
";;@==========;;;;;;;;;@.=======@",
";;;==========@;;;;;;;;;;;@=====;",
";;;===========;;;;;;;;;;;;;@@==;",
";;;@===========@;;;;;;;;;;;;;#.;",
";;;;=============@@;;;;;;;;;;;;;",
";;;;=====================;;;;;;;",
";;;;;=====================;;;;;;",
";;;;;@====================@;;;;;",
";;;;;;.====================;;;;;",
";;;;;;;=====@@=============;;;;;",
";;;;;;;;@==.;;;;.@=========;;;;;",
";;;;;;;;;@==;;;;;;;=@@==.@;;;;;;",
";;;;;;;;;;@=@;;;;;;;;;;;;;;;;;;;",
";;;;;;;;;;;;@@;;;;;;;;;;;;;;;;;;",
";;;;;;;;;;;;;;;;;;;;;;;;;;;;;;;;"
};
